<svg id="Layer_1" data-name="Layer 1" xmlns="http://www.w3.org/2000/svg" viewBox="0 0 6370.51 3392">
  <defs>
    <style>
      .cls-1 {
        fill: none;
      }

      .cls-2, .cls-3 {
        fill: #fff;
      }

      .cls-3 {
        font-size: 762.03px;
        font-family: NiveauGroteskExtraLight-SmallCaps, Niveau Grotesk;
      }

      .cls-4 {
        letter-spacing: -0.05em;
      }

      .cls-5 {
        letter-spacing: 0em;
      }

      .cls-6 {
        letter-spacing: -0.02em;
      }

      .cls-7 {
        letter-spacing: -0.01em;
      }

      .cls-8 {
        letter-spacing: -0.01em;
      }
    </style>
  </defs>
  <title>CR_Logo_New_With_Title</title>
  <path class="cls-1" d="M1481.5,528.9l-12.73-13.71h-7.84c-12.58,12.65-28.93,21.2-40.15,35.25-33.86,42.43-44.92,87.44-56.8,154.74-5.24,29.66-8.18,80,3.92,104.79l1.95-1c4.32-11.91,11.54-17.1,17.63-28.4C1418,723.91,1449.3,671.66,1485.42,621c11-15.45,51.43-59.85,54.84-75.41l-14.69-9.8Z"/>
  <g>
    <path class="cls-2" d="M2909.79,1972.8s-2-.2-5-.52C2907.18,1972.87,2909,1973.12,2909.79,1972.8Z"/>
    <path class="cls-2" d="M2806.68,2266.32c5.74,3.5,11.5,6.37,15,6.37C2821.68,2272.69,2814.88,2269.66,2806.68,2266.32Z"/>
    <path class="cls-2" d="M2823.18,2287.21s-2-.42-5.18-1.17A15.37,15.37,0,0,0,2823.18,2287.21Z"/>
    <path class="cls-2" d="M2839.92,2255a22.28,22.28,0,0,0,5.29,4.2S2843.12,2257.57,2839.92,2255Z"/>
    <path class="cls-2" d="M2817.29,2256.82Z"/>
    <path class="cls-2" d="M2817.29,2256.82l-.75-.19.13,0Z"/>
    <path class="cls-2" d="M2767.61,2476s-8-4.08-18.12-9.63a40.68,40.68,0,0,0,7.1,4.62Z"/>
    <path class="cls-2" d="M2733.38,2505.2c.92.79,1.67,1.4,2.19,1.79Z"/>
    <path class="cls-2" d="M2713,2530.77l2.12,1.85C2714.69,2532.18,2714,2531.54,2713,2530.77Z"/>
    <path class="cls-2" d="M2706,2546.08l-31.33-28.7c-.81.81-1.62,1.63-2.45,2.42Z"/>
    <path class="cls-2" d="M2683.12,2559.35a42,42,0,0,0-5.75-6.24c7.16,9.09,12.52,16.27,12.52,16.27Z"/>
    <path class="cls-2" d="M2572.88,2573.56l20.63,35.45-16.84-36.46C2575.42,2572.9,2574.15,2573.23,2572.88,2573.56Z"/>
    <path class="cls-2" d="M2721.05,2498.48a14.07,14.07,0,0,0-4.53-3.8A34.34,34.34,0,0,1,2721.05,2498.48Z"/>
    <path class="cls-2" d="M2963.26,1682.58c-47.57-62.36-88-129.85-130.25-198.81-13.73-22.42-37.56-57.29-30.36-97.94,6.1-34.46,11.46-70.88,27.42-96.95,4.63-7.57,35.69-38.56,36.24-42.12L2854.55,1234q.49-6.85,1-13.71-3.42-19.59-6.85-39.17c-9.12-30.79-23.94-55.84-35.26-82.27-21-49-20.64-111.65-38.19-164.53-16.34-49.21-46.17-91.62-71.5-133.19-19.46-31.95-31-67.51-48-103.81-19.85-42.52-44.13-82.17-69.54-119.48-146.44-215.06-396.52-332.81-761.94-328.09l-38.19,2-88.14,14.69c-80.71,22.94-153.51,49.53-223.3,81.29-4.84-6.65-4.12-14.81-10.77-19.59-41.59-29.89-57.16,39.05-111.64,34.28-21.15-1.85-42.47-19.22-64.64-15.67-11.8,1.89-17.79,11.7-26.44,13.71-13.12,3-20.2,1.12-30.36,7.83L1211.2,384l-33.3-1-65.62,8.82c-69.51,19.86-119.45,52.65-168.44,92.06-69.19,55.64-129.4,151.28-168.45,237L707.81,913.78c-69.82,187-125.82,386.72-180.2,588.6q-30.84,139.53-61.7,279.11c-19.79,71.71-23.73,148.37-38.19,223.29q-3.44,37.71-6.86,75.41c-30.59,176.67,49.38,301.06,142,371.18,51.92,39.31,101.62,78.87,176.28,35.26,13.85-8.09,30.13-14.6,40.15-26.45.66-.32,1.31-.65,2-1-20.54-.85-48.44,4.68-71.49,0-80.74-16.36-117.22-68.82-111.65-168.45l2-1c4.22,31.67,32.19,53.28,53.87,68.55,59.2,41.69,185.86,78.2,286.95,76.39l-49-9.79c-64.79-18-146.38-45.86-145.92-128.3h1c35.57,23.52,73.08,36.57,117.12,37.1,40.49,2.08,127.92-4.56,281.42-65.55,0,0-119,3.28-75.94-74.86h0l9.29-12a160.18,160.18,0,0,1,25.6-26.19c15.61-12.67,39.91-33.72,46-46.55l18,30.79c18,23.86,89.36,90.16,116.21,100.44l1,2c-12.52,14.2-26.73,21.08-32.32,43.09,0,.31-.31.49-.78.57-10.72,7.87-129.29,95.88-181.88,175.09,65.25,88.8,153.29,160.31,235.55,222,138.46,103.77,272.66,213.88,413.28,316.33,66.94,48.76,125.5,94.4,213.5,124.38,14.29,4.86,68.14,24.74,83.25,17.62,16.06-7.56,5.27-48.94,1-61.7-9.49-28.19-21.94-55.17-35.26-80.3l-17.63-26.45q2-19.1,3.92-38.19c28.45-101.34,113.2-166.79,191-219.38,56.51-38.2,103.27-76.82,176.29-99.89,72.32-22.85,162.74-21.43,237.38-41.36,1.27-.33,2.54-.66,3.79-1,4.4-1.22,8.73-2.55,13-3.94a228.24,228.24,0,0,1,5.68,23.84s-1.3-12.38-3.1-24.67h0q6.63-2.24,13-4.79c3,6.67,7,14,11.19,16.75,0,0-3.95-8.64-7.3-18.32,1.17-.49,2.34-1,3.5-1.5,3.14,9.32,7.31,17.81,12.11,17.91,0,0-4.13-9.7-7.53-20h0c3.05-1.44,6.07-2.93,9-4.52,2.77,7.28,4.82,13.82,4.82,13.82l-2.54-15.06h0q3.06-1.68,6.05-3.48a14.47,14.47,0,0,0,4.91,5.25s-1.09-2.87-2.36-6.8h0c2-1.22,3.91-2.47,5.84-3.75,3.78,6.4,8.47,11.77,13.34,10.94a145.63,145.63,0,0,1-10.79-12.64l-.7.47.7-.47c3.11-2.14,6.14-4.38,9.14-6.69l.39-.32-.39.32a287.87,287.87,0,0,1,22.66,18.22c-5.49-7-12-15.05-18-21.9h0c1.28-1,2.55-2.08,3.8-3.16,4,5.51,9.21,11.13,14.77,12.38l11.61,2.61s-15.08-6.9-23.64-17.4h0q3.21-2.85,6.32-5.84c.83-.79,1.64-1.61,2.45-2.42,1.27-1.26,2.54-2.53,3.78-3.83l31.72,28.36-28.6-31.71c-.74.81-1.49,1.61-2.24,2.41.75-.8,1.5-1.6,2.24-2.41s1.44-1.56,2.14-2.36c10.32,7.88,23.7,18.18,29.37,22.93-4.95-4.35-17.62-15.64-27.14-25.48,1.7-2,3.38-4,5-6,14.38,17.84,39.64,30.75,39.64,30.75-8-4-22.86-24.08-33.23-39.09h0l.81-1.12c6.8.76,13.64,2.21,18.38,4.87a56.21,56.21,0,0,0-16.15-8c-.4.57-.81,1.13-1.21,1.69.4-.56.81-1.12,1.21-1.69q1.49-2.14,2.92-4.32c11.39,7.78,24.91,18.62,30.09,22.83-5.75-4.91-18.58-16.81-28.15-25.75.54-.84,1.06-1.7,1.59-2.54l37.07,23.57-34.57-27.61q1.47-2.46,2.89-4.95l35.37,27.56-33.7-30.58q1.86-3.39,3.63-6.87l.18-.35-.18.35c13.14,5.84,24.06,21.93,24.06,21.93l-4.5-11c-2.56-6.25-11.09-11.05-18-14h0q1.18-2.44,2.33-4.92c8.41,5.38,19.09,11.43,28.07,16.33-7.62-5.83-17.74-15.37-25.21-22.68h0c1.29-3,2.53-6,3.72-9.06a133.92,133.92,0,0,1,19.08,10.83c0-6.15-9.41-10.44-18.19-13.1h0c.67-1.78,1.31-3.57,2-5.37,6.79.71,13,1.95,13,1.95-2.68-3.16-7.21-4.73-11.85-5.46h0c.57-1.68,1.14-3.36,1.68-5h21.87s-11-1.52-20.72-3.82c.9-3,1.77-6.08,2.58-9.16a260.28,260.28,0,0,1,27.65,5c-1.1-5.81-14.58-8.56-26.42-9.86.3-1.26.61-2.52.9-3.79a216.91,216.91,0,0,1,26,5.14c-4.62-5-17.06-8.16-25-9.78.83-4,1.61-8,2.29-12,14.24-.05,31.74-1.14,31.74-1.14-9.3,0-21.24-1.18-30.65-2.37l4.37-13.71,42.3,11.5-41-15.44.17-.55c3.62-29.24,15.77-58.52,30.79-83.57,11.49,4.91,28.86,9.27,37.45,11.28-8.78-3.09-24.52-11.59-34-16.89q3-4.68,6-9.12c5.1,1.69,11.19,4.06,16.65,6.29-5.4-3.3-10.77-7.16-14.23-9.74,1.49-2.09,3-4.13,4.49-6.12,7.65,2.89,16.46,5.33,19.6,6.17-4.76-1.26-11.39-6.64-16-10.81,1.61-2.05,3.24-4,4.86-6,5.45,2.77,10.27,4.78,10.27,4.78a78.74,78.74,0,0,1-8.6-6.74c1.47-1.69,2.93-3.35,4.39-4.94.67-.73,1.4-1.46,2.17-2.19,7.95,8.9,19.58,18.75,26.29,24.19-6.62-6.61-15.05-18.82-21.33-28.52,1.81-1.48,3.74-3,5.73-4.48,5.12,5.56,9.87,11.17,9.87,11.17.23-2-3.37-7.61-7.37-13.07,1.75-1.33,3.52-2.67,5.28-4l24.12,48.64-18.87-52.85h0c7-5.84,13-12.1,15.25-19,6-18.64-4.48-31.44-8.82-44.07q-2.94-21.06-5.87-42.11c45.32-.81,53.88-43.31,51.2-91.17a63.79,63.79,0,0,0,15.42,5c-4.86-1-11-5.29-15.67-9q-.32-4.62-.75-9.28c7.08,3.16,17.19,12.72,16,9.3-1-2.92-10-7.89-16.21-11-.25-2.59-.53-5.19-.83-7.78,12.66,2.74,27.93,18.8,27.93,18.8-6.22-16.71-19.38-21.07-28.37-22.57-.19-1.52-.38-3-.58-4.56,7.66-.29,16.93,2,16.93,2a22.53,22.53,0,0,0-17.51-6.33l-.6-4.24c14,3.22,32.75,10.57,32.75,10.57-.69-3.71-19.2-9.73-33.22-13.77h0c-.08-.55-.17-1.1-.25-1.65,16.83,4.09,41.36,11.29,41.36,11.29-5.19-4.37-26.47-9.53-37.69-12,5.27.8,12.27,1.6,16.93,2.11-6.12-1.51-16-5.28-21.54-7.51q-.45-2.88-.92-5.73c13.39,8.36,31.58,8.88,31.58,8.88-14.5-2.54-26.58-11.29-32.87-16.66-.14-.82-.28-1.65-.41-2.46,6.39,3.94,16.44,12.6,16.44,12.6-1-5.76-11.07-12.55-17-16.13-.44-2.57-.88-5.1-1.3-7.57,11.47,3.66,23,16,23,16s9.57,11.64,3.56.75c-4.15-7.54-18.55-15.43-27-19.58-1.09-6.38-2.11-12.41-2.95-18,13.08,8.81,30,24.77,30,24.77-1.11-6.14-20.71-21.83-30.68-29.48h0c-.16-1.14-.32-2.26-.46-3.35-2.23-17.08,11.45-24,15.67-35.26,6.55-3,17.17-.92,25.46-2.94,28-6.8,55.9-20.57,71.5-40.15C3031.28,1774.58,2995.76,1725.18,2963.26,1682.58ZM1485.42,621c-36.12,50.7-67.39,102.95-97.94,159.63-6.09,11.3-13.31,16.49-17.63,28.4l-1.95,1c-12.1-24.82-9.16-75.13-3.92-104.79,11.88-67.3,22.94-112.31,56.8-154.74,11.22-14.05,27.57-22.6,40.15-35.25h7.84l12.73,13.71,44.07,6.85,14.69,9.8C1536.85,561.11,1496.42,605.51,1485.42,621Z"/>
  </g>
  <text class="cls-3" transform="translate(3509.14 1019.7)"><tspan class="cls-4">T<tspan class="cls-5" x="305.57" y="0">he</tspan></tspan><tspan x="0" y="914.43">Clien</tspan><tspan class="cls-6" x="1713.76" y="914.43">t</tspan><tspan x="0" y="1828.86">R</tspan><tspan class="cls-7" x="422.15" y="1828.86">e</tspan><tspan class="cls-8" x="737.63" y="1828.86">c</tspan><tspan x="1123.21" y="1828.86">ord</tspan></text>
</svg>
