<svg id="Layer_1" data-name="Layer 1" xmlns="http://www.w3.org/2000/svg" viewBox="0 0 3024 3392">
  <defs>
    <style>
      .cls-1 {
        fill: none;
      }
    </style>
  </defs>
  <title>CR_Logo_New</title>
  <g>
    <path class="cls-1" d="M1282.55,528.9l-12.74-13.71H1262c-12.58,12.65-28.94,21.2-40.15,35.25-33.86,42.43-44.92,87.44-56.81,154.74-5.23,29.66-8.17,80,3.92,104.79l2-1c4.32-11.91,11.54-17.1,17.63-28.4,30.55-56.68,61.81-108.93,97.93-159.63,11-15.45,51.44-59.85,54.85-75.41l-14.69-9.8Z"/>
    <path class="cls-1" d="M2685,1969.51c1.1.21,2.42.44,3.88.66-1.51-.34-2.83-.62-3.91-.85Z"/>
    <path d="M2702.76,1953.66s9.58,11.64,3.57.75c-4.16-7.54-18.56-15.43-27-19.58.17,1,.33,1.9.49,2.87C2691.26,1941.36,2702.76,1953.66,2702.76,1953.66Z"/>
    <path d="M2715,1967.92c-14.51-2.54-26.59-11.29-32.87-16.66.43,2.56.86,5.16,1.29,7.78C2696.78,1967.4,2715,1967.92,2715,1967.92Z"/>
    <path d="M2698.13,1961.4c-1.05-5.76-11.08-12.55-17.05-16.13l.6,3.53C2688.08,1952.74,2698.13,1961.4,2698.13,1961.4Z"/>
    <path d="M2685.25,1970.9c16.82,4.09,41.36,11.29,41.36,11.29-5.2-4.37-26.48-9.53-37.69-12-1.46-.22-2.78-.45-3.88-.66Z"/>
    <path d="M2705.58,2020.49c-4.86-1-11-5.29-15.67-9,.09,1.34.17,2.68.25,4A63.65,63.65,0,0,0,2705.58,2020.49Z"/>
    <path d="M2706.33,1941.64c-1.12-6.14-20.71-21.83-30.68-29.48.21,1.53.45,3.1.69,4.71C2689.43,1925.68,2706.33,1941.64,2706.33,1941.64Z"/>
    <path d="M2704.08,1986.32a22.55,22.55,0,0,0-17.52-6.33c.2,1.45.4,2.9.59,4.36C2694.81,1984.06,2704.08,1986.32,2704.08,1986.32Z"/>
    <path d="M2716.09,2011.48c-6.21-16.71-19.38-21.07-28.37-22.57.16,1.25.3,2.51.45,3.77C2700.83,1995.42,2716.09,2011.48,2716.09,2011.48Z"/>
    <path d="M2705.2,2011.48c-1-2.92-10-7.89-16.21-11,.06.57.12,1.15.17,1.72C2696.23,2005.34,2706.34,2014.9,2705.2,2011.48Z"/>
    <path d="M2710.83,1972.8l-5-.52C2708.22,1972.87,2710.05,1973.12,2710.83,1972.8Z"/>
    <path d="M2688.92,1970.17c5.26.8,12.27,1.6,16.93,2.11-6.12-1.51-15.95-5.28-21.54-7.51.23,1.51.47,3,.7,4.55C2686.09,1969.55,2687.41,1969.83,2688.92,1970.17Z"/>
    <path d="M2718.72,1986.32c-.7-3.71-19.2-9.73-33.22-13.77.15,1.06.31,2.13.46,3.2C2700,1979,2718.72,1986.32,2718.72,1986.32Z"/>
    <path d="M2619,2286c-8.77-3.09-24.52-11.59-34-16.89-1.17,1.84-2.31,3.72-3.44,5.61C2593.09,2279.67,2610.46,2284,2619,2286Z"/>
    <path d="M2607.73,2266.32c-5.4-3.3-10.77-7.16-14.23-9.74-.81,1.13-1.62,2.28-2.42,3.45C2596.18,2261.72,2602.26,2264.09,2607.73,2266.32Z"/>
    <path d="M2607.73,2266.32c5.74,3.5,11.49,6.37,15,6.37C2622.72,2272.69,2615.92,2269.66,2607.73,2266.32Z"/>
    <path d="M2616.71,2244.65a77.84,77.84,0,0,1-8.59-6.74c-.56.65-1.12,1.3-1.67,2C2611.89,2242.64,2616.71,2244.65,2616.71,2244.65Z"/>
    <path d="M2619,2286a15.47,15.47,0,0,0,5.18,1.17S2622.24,2286.79,2619,2286Z"/>
    <path d="M2617.59,2256.63c-4.76-1.26-11.39-6.64-16-10.81q-1.8,2.26-3.6,4.64C2605.63,2253.35,2614.45,2255.79,2617.59,2256.63Z"/>
    <path d="M2635.24,2233.14c.23-2-3.38-7.61-7.37-13.07l-2.51,1.9C2630.48,2227.53,2635.24,2233.14,2635.24,2233.14Z"/>
    <path d="M2641,2255a22.68,22.68,0,0,0,5.29,4.2S2644.17,2257.57,2641,2255Z"/>
    <path d="M2657.27,2264.68l-18.88-52.85c-1.7,1.43-3.47,2.83-5.25,4.21Z"/>
    <path d="M2618.33,2256.82Z"/>
    <path d="M2641,2255c-6.61-6.61-15-18.82-21.33-28.52-1.78,1.46-3.46,2.9-5,4.33C2622.63,2239.68,2634.26,2249.53,2641,2255Z"/>
    <path d="M2618.33,2256.82l-.74-.19.13,0Z"/>
    <polygon points="2591.68 2374.32 2550.63 2358.88 2549.38 2362.82 2591.68 2374.32"/>
    <path d="M2548.13,2445.41c0-6.15-9.42-10.44-18.2-13.1-.29.76-.59,1.51-.88,2.27A133.92,133.92,0,0,1,2548.13,2445.41Z"/>
    <path d="M2544.93,2428.89c-2.67-3.16-7.2-4.73-11.84-5.46-.4,1.17-.79,2.34-1.21,3.51C2538.68,2427.65,2544.93,2428.89,2544.93,2428.89Z"/>
    <path d="M2550.53,2466.32c-7.61-5.83-17.73-15.37-25.21-22.68q-1.38,3.2-2.85,6.35C2530.88,2455.37,2541.56,2461.42,2550.53,2466.32Z"/>
    <path d="M2568.65,2476s-8-4.08-18.12-9.63a41.08,41.08,0,0,0,7.11,4.62Z"/>
    <path d="M2556.64,2418.38s-11-1.52-20.73-3.82c-.38,1.27-.75,2.55-1.15,3.82Z"/>
    <path d="M2566.65,2401.86c-4.62-5-17.07-8.16-25-9.78-.33,1.55-.65,3.1-1,4.64A216.91,216.91,0,0,1,2566.65,2401.86Z"/>
    <path d="M2566.15,2410.37c-1.11-5.81-14.58-8.56-26.43-9.86q-.58,2.46-1.23,4.89A260.16,260.16,0,0,1,2566.15,2410.37Z"/>
    <path d="M2542.62,2480l-4.51-11c-2.55-6.25-11.08-11.05-18-14-.51,1-1,2.08-1.57,3.12C2531.69,2463.87,2542.62,2480,2542.62,2480Z"/>
    <path d="M2534.43,2505.2c.92.79,1.67,1.4,2.18,1.79C2536.61,2507,2535.81,2506.32,2534.43,2505.2Z"/>
    <path d="M2531.61,2530c-8-4-22.86-24.08-33.23-39.09q-3.12,4.26-6.41,8.34C2506.34,2517.11,2531.61,2530,2531.61,2530Z"/>
    <path d="M2534.43,2505.2c-5.76-4.91-18.59-16.81-28.15-25.75-.64,1-1.29,2-1.94,2.92C2515.73,2490.15,2529.25,2501,2534.43,2505.2Z"/>
    <path d="M2543.92,2380c14.24-.05,31.74-1.14,31.74-1.14-9.29,0-21.24-1.18-30.64-2.37l-1.07,3.35Z"/>
    <path d="M2548.63,2495.48l-33.71-30.58c-.55,1-1.1,2-1.67,3Z"/>
    <path d="M2544.93,2500.48l-34.56-27.61c-.82,1.36-1.66,2.7-2.5,4Z"/>
    <path d="M2396.4,2592.45s-1.3-12.38-3.1-24.67l-2.58.83A225.74,225.74,0,0,1,2396.4,2592.45Z"/>
    <path d="M2432.16,2567.12l-2.54-15.06c-.75.42-1.51.84-2.27,1.24C2430.11,2560.58,2432.16,2567.12,2432.16,2567.12Z"/>
    <path d="M2478.94,2540.43l11.61,2.61s-15.08-6.9-23.65-17.4c-.91.81-1.81,1.62-2.74,2.41C2468.13,2533.56,2473.37,2539.18,2478.94,2540.43Z"/>
    <path d="M2514.08,2530.77c-4.95-4.35-17.61-15.64-27.14-25.48-.73.85-1.47,1.71-2.22,2.55C2495,2515.72,2508.42,2526,2514.08,2530.77Z"/>
    <path d="M2514.08,2530.77l2.13,1.85C2515.74,2532.18,2515,2531.54,2514.08,2530.77Z"/>
    <path d="M2473.23,2519.8l33.77,26.28-31.32-28.7C2474.87,2518.19,2474.05,2519,2473.23,2519.8Z"/>
    <path d="M2406.34,2563c3,6.67,7,14,11.2,16.75,0,0-3.95-8.64-7.31-18.32l-1.43.62C2408,2562.37,2407.16,2562.67,2406.34,2563Z"/>
    <path d="M2425.85,2577.83s-4.14-9.7-7.53-20c-1.52.71-3,1.42-4.58,2.1C2416.88,2569.24,2421.05,2577.73,2425.85,2577.83Z"/>
    <path d="M2440.58,2553.83s-1.08-2.87-2.36-6.8l-2.54,1.55A14.44,14.44,0,0,0,2440.58,2553.83Z"/>
    <path d="M2484.16,2559.35a41.83,41.83,0,0,0-5.74-6.24c7.16,9.09,12.51,16.27,12.51,16.27Z"/>
    <path d="M2457.4,2554.22a146.53,146.53,0,0,1-10.78-12.64c-.85.58-1.71,1.13-2.56,1.7C2447.84,2549.68,2452.54,2555.05,2457.4,2554.22Z"/>
    <path d="M2517.57,2494.68a56.35,56.35,0,0,0-16.15-8c-.74,1-1.49,2.08-2.24,3.12C2506,2490.57,2512.83,2492,2517.57,2494.68Z"/>
    <path d="M2478.42,2553.11c-5.49-7-12-15.05-18.05-21.9q-2.28,1.88-4.62,3.68A286.29,286.29,0,0,1,2478.42,2553.11Z"/>
    <path d="M2511.18,2541.91l-28.6-31.71c-1,1.12-2.07,2.25-3.12,3.35Z"/>
    <path d="M2394.56,2609l-16.84-36.46c-1.26.35-2.53.68-3.79,1Z"/>
    <path d="M2522.09,2498.48a13.92,13.92,0,0,0-4.52-3.8A33.72,33.72,0,0,1,2522.09,2498.48Z"/>
    <path d="M2764.31,1682.58c-47.57-62.36-88-129.85-130.26-198.81-13.72-22.42-37.55-57.29-30.36-97.94,6.11-34.46,11.47-70.88,27.43-96.95,4.63-7.57,35.69-38.56,36.23-42.12L2655.6,1234q.49-6.85,1-13.71-3.43-19.59-6.86-39.17c-9.12-30.79-23.93-55.84-35.25-82.27-21-49-20.64-111.65-38.2-164.53-16.33-49.21-46.16-91.62-71.49-133.19-19.47-31.95-31-67.51-48-103.81-19.85-42.52-44.12-82.17-69.53-119.48-146.45-215.06-396.52-332.81-761.94-328.09l-38.19,2L1499,266.43c-80.7,22.94-153.5,49.53-223.29,81.29-4.84-6.65-4.12-14.81-10.77-19.59-41.59-29.89-57.16,39.05-111.65,34.28-21.14-1.85-42.46-19.22-64.64-15.67-11.79,1.89-17.79,11.7-26.44,13.71-13.12,3-20.2,1.12-30.36,7.83L1012.24,384,979,383l-65.62,8.82c-69.51,19.86-119.45,52.65-168.45,92.06-69.18,55.64-129.4,151.28-168.45,237L508.86,913.78c-69.83,187-125.82,386.72-180.2,588.6Q297.8,1641.91,267,1781.49c-19.8,71.71-23.74,148.37-38.2,223.29q-3.42,37.71-6.85,75.41c-30.6,176.67,49.38,301.06,142,371.18,51.93,39.31,101.63,78.87,176.29,35.26,13.84-8.09,30.13-14.6,40.15-26.45l2-1c-20.54-.85-48.44,4.68-71.49,0-80.75-16.36-117.23-68.82-111.65-168.45l2-1c4.22,31.67,32.18,53.28,53.86,68.55,59.21,41.69,185.87,78.2,287,76.39l-49-9.79c-64.79-18-146.38-45.86-145.93-128.3h1c35.57,23.52,73.08,36.57,117.13,37.1,40.49,2.08,127.92-4.56,281.41-65.55,0,0-119,3.28-75.94-74.86h0l9.3-12a160.12,160.12,0,0,1,25.59-26.19c15.61-12.67,39.92-33.72,46-46.55l18,30.79c18,23.86,89.36,90.16,116.21,100.44.32.65.65,1.3,1,2-12.53,14.2-26.73,21.08-32.32,43.09,0,.31-.31.49-.79.57-10.71,7.87-129.28,95.88-181.87,175.09,65.24,88.8,153.29,160.31,235.54,222,138.46,103.77,272.67,213.88,413.29,316.33,66.93,48.76,125.49,94.4,213.5,124.38,14.29,4.86,68.13,24.74,83.24,17.62,16.07-7.56,5.27-48.94,1-61.7-9.48-28.19-21.93-55.17-35.25-80.3q-8.82-13.23-17.63-26.45,2-19.1,3.92-38.19c28.45-101.34,113.19-166.79,191-219.38,56.51-38.2,103.26-76.82,176.28-99.89,72.33-22.85,162.74-21.43,237.39-41.36,1.26-.33,2.53-.66,3.79-1,4.4-1.22,8.72-2.55,13-3.94l2.58-.83q6.64-2.24,13-4.79c.82-.32,1.65-.62,2.46-.95l1.43-.62c1.18-.49,2.34-1,3.51-1.5,1.54-.68,3.06-1.39,4.58-2.1,3-1.44,6.06-2.93,9-4.52.76-.4,1.52-.82,2.27-1.24q3.06-1.68,6.06-3.48l2.54-1.55q3-1.83,5.84-3.75c.85-.57,1.71-1.12,2.56-1.7,3.11-2.14,6.14-4.38,9.13-6.69q2.34-1.8,4.62-3.68c1.27-1,2.54-2.08,3.79-3.16.93-.79,1.83-1.6,2.74-2.41,2.14-1.9,4.26-3.84,6.33-5.84.82-.79,1.64-1.61,2.45-2.42,1.27-1.26,2.54-2.53,3.78-3.83,1.05-1.1,2.09-2.23,3.12-3.35.72-.79,1.43-1.56,2.14-2.36s1.49-1.7,2.22-2.55c1.71-2,3.39-4,5-6q3.29-4.08,6.41-8.34l.8-1.12c.75-1,1.5-2.07,2.24-3.12,1-1.43,1.95-2.87,2.92-4.32.65-1,1.3-1.93,1.94-2.92.54-.84,1.06-1.7,1.59-2.54.84-1.34,1.68-2.68,2.5-4q1.47-2.46,2.88-4.95c.57-1,1.12-2,1.67-3q1.88-3.39,3.64-6.87c.53-1,1.06-2.08,1.57-3.12.8-1.63,1.57-3.27,2.34-4.92q1.47-3.15,2.85-6.35c1.29-3,2.54-6,3.73-9.06.29-.76.59-1.51.88-2.27q1-2.67,2-5.37c.42-1.17.81-2.34,1.21-3.51.57-1.68,1.14-3.36,1.67-5,.4-1.27.77-2.55,1.15-3.82q1.37-4.54,2.58-9.16.65-2.43,1.23-4.89c.31-1.26.62-2.52.91-3.79.35-1.54.67-3.09,1-4.64.84-4,1.62-8,2.29-12l0-.16,1.07-3.35,4.36-13.71,1.25-3.94.18-.55c3.62-29.24,15.76-58.52,30.79-83.57,1.13-1.89,2.27-3.77,3.44-5.61q3-4.68,6-9.12c.8-1.17,1.61-2.32,2.42-3.45,1.48-2.09,3-4.13,4.48-6.12q1.8-2.37,3.6-4.64,2.43-3.08,4.87-6c.55-.66,1.11-1.31,1.67-2,1.47-1.69,2.93-3.35,4.39-4.94q1-1.09,2.16-2.19c1.5-1.43,3.18-2.87,5-4.33s3.75-3,5.73-4.48l2.51-1.9c1.75-1.33,3.52-2.67,5.27-4s3.55-2.78,5.25-4.21c7-5.84,13-12.1,15.25-19,6-18.64-4.47-31.44-8.81-44.07l-5.88-42.11c45.33-.81,53.89-43.31,51.21-91.17-.08-1.33-.16-2.67-.25-4q-.32-4.62-.75-9.28c0-.57-.11-1.15-.17-1.72-.25-2.59-.52-5.19-.82-7.78-.15-1.26-.29-2.52-.45-3.77-.18-1.52-.38-3-.57-4.56s-.39-2.91-.59-4.36-.39-2.83-.6-4.24c-.15-1.07-.31-2.14-.46-3.2-.09-.55-.17-1.1-.25-1.65l-.21-1.39,0-.19c-.23-1.52-.47-3-.7-4.55q-.46-2.88-.92-5.73c-.43-2.62-.86-5.22-1.29-7.78-.14-.82-.28-1.65-.42-2.46l-.6-3.53c-.44-2.57-.87-5.1-1.3-7.57-.16-1-.32-1.92-.49-2.87-1.09-6.38-2.1-12.41-2.95-18-.24-1.61-.48-3.18-.69-4.71-.17-1.14-.32-2.26-.46-3.35-2.23-17.08,11.44-24,15.67-35.26,6.55-3,17.16-.92,25.46-2.94,28-6.8,55.9-20.57,71.49-40.15C2832.33,1774.58,2796.81,1725.18,2764.31,1682.58ZM1286.46,621c-36.12,50.7-67.38,102.95-97.93,159.63-6.09,11.3-13.31,16.49-17.63,28.4l-2,1c-12.09-24.82-9.15-75.13-3.92-104.79,11.89-67.3,23-112.31,56.81-154.74,11.21-14.05,27.57-22.6,40.15-35.25h7.83l12.74,13.71,44.07,6.85,14.69,9.8C1337.9,561.11,1297.47,605.51,1286.46,621Z"/>
  </g>
</svg>
