<svg id="Layer_1" data-name="Layer 1" xmlns="http://www.w3.org/2000/svg" viewBox="0 0 413.33 330.67">
  <defs>
    <style>
      .cls-1 {
        fill: #fff;
      }
    </style>
  </defs>
  <title>cr_logo</title>
  <g>
    <g>
      <polygon class="cls-1" points="43.6 79.83 15.85 75.18 17.13 259.5 160.72 288.55 42.86 236.59 43.6 79.83"/>
      <polygon class="cls-1" points="88.08 55.5 59.16 42.12 60.57 224.18 178.72 279.44 87.96 215.48 88.08 55.5"/>
      <polygon class="cls-1" points="354.17 42.12 325.25 55.5 325.37 215.48 234.61 279.44 352.76 224.18 354.17 42.12"/>
      <polygon class="cls-1" points="369.73 79.83 370.47 236.59 252.61 288.55 396.21 259.5 397.48 75.18 369.73 79.83"/>
    </g>
    <g>
      <path class="cls-1" d="M172.49,187.52a51.76,51.76,0,0,1-23.84-5.3,39.4,39.4,0,0,1-16.32-15.35q-5.94-10-5.93-23.5a46,46,0,0,1,5.76-23,41.53,41.53,0,0,1,16.49-16.14q10.72-5.94,24.76-5.93a57.9,57.9,0,0,1,14.43,1.88,46,46,0,0,1,12.61,5.08L197.6,120q-12.45-6.15-24-6.16a31.42,31.42,0,0,0-15.06,3.54,25.67,25.67,0,0,0-10.38,10.15A30.89,30.89,0,0,0,144.42,143q0,13.35,8,21.17T174,172a51.56,51.56,0,0,0,12.66-1.71,59.07,59.07,0,0,0,12.67-4.79l1.82,15.06a51.33,51.33,0,0,1-13.35,5.14A65,65,0,0,1,172.49,187.52Z"/>
      <path class="cls-1" d="M218,99.55H246.2q15,0,23.51,7.36t8.55,20.25a25.65,25.65,0,0,1-3.76,13.75,27.82,27.82,0,0,1-10.73,9.87l23.17,35.49H267.31l-18.6-31.15-3.25.17c-.88,0-1.69.06-2.45.06h-8.33v30.92H218Zm16.66,41.76h8.55q17.93,0,17.92-14,0-6.73-4.39-10.22c-2.93-2.31-7.25-3.48-12.95-3.48h-9.13Z"/>
    </g>
  </g>
</svg>
