<svg id="Layer_1" data-name="Layer 1" xmlns="http://www.w3.org/2000/svg" viewBox="0 0 6370.51 3392">
  <defs>
    <style>
      .cls-1 {
        fill: #fff;
      }

      .cls-2 {
        font-size: 762.03px;
        fill: #231f20;
        font-family: NiveauGroteskExtraLight-SmallCaps, Niveau Grotesk;
      }

      .cls-3 {
        letter-spacing: -0.05em;
      }

      .cls-4 {
        letter-spacing: 0em;
      }

      .cls-5 {
        letter-spacing: -0.02em;
      }

      .cls-6 {
        letter-spacing: -0.01em;
      }

      .cls-7 {
        letter-spacing: -0.01em;
      }
    </style>
  </defs>
  <title>CR_Logo_New_With_Title_Black</title>
  <g>
    <path d="M2884,1969.51c1.11.21,2.42.44,3.88.66-1.51-.34-2.82-.62-3.91-.85Z"/>
    <path d="M2901.72,1953.66s9.57,11.64,3.56.75c-4.15-7.54-18.55-15.43-27-19.58.16,1,.32,1.9.49,2.87C2890.21,1941.36,2901.72,1953.66,2901.72,1953.66Z"/>
    <path d="M2913.92,1967.92c-14.5-2.54-26.58-11.29-32.87-16.66.43,2.56.86,5.16,1.29,7.78C2895.73,1967.4,2913.92,1967.92,2913.92,1967.92Z"/>
    <path d="M2897.08,1961.4c-1-5.76-11.07-12.55-17-16.13.2,1.17.4,2.35.61,3.53C2887,1952.74,2897.08,1961.4,2897.08,1961.4Z"/>
    <path d="M2884.2,1970.9c16.83,4.09,41.36,11.29,41.36,11.29-5.19-4.37-26.47-9.53-37.69-12-1.46-.22-2.77-.45-3.88-.66Z"/>
    <path d="M2904.53,2020.49c-4.86-1-11-5.29-15.67-9,.1,1.34.18,2.68.25,4A63.79,63.79,0,0,0,2904.53,2020.49Z"/>
    <path d="M2905.28,1941.64c-1.11-6.14-20.71-21.83-30.68-29.48.22,1.53.45,3.1.7,4.71C2888.38,1925.68,2905.28,1941.64,2905.28,1941.64Z"/>
    <path d="M2903,1986.32a22.53,22.53,0,0,0-17.51-6.33c.19,1.45.39,2.9.58,4.36C2893.76,1984.06,2903,1986.32,2903,1986.32Z"/>
    <path d="M2915.05,2011.48c-6.22-16.71-19.38-21.07-28.37-22.57.15,1.25.3,2.51.44,3.77C2899.78,1995.42,2915.05,2011.48,2915.05,2011.48Z"/>
    <path d="M2904.16,2011.48c-1-2.92-10-7.89-16.21-11,.05.57.11,1.15.16,1.72C2895.19,2005.34,2905.3,2014.9,2904.16,2011.48Z"/>
    <path d="M2909.79,1972.8s-2-.2-5-.52C2907.18,1972.87,2909,1973.12,2909.79,1972.8Z"/>
    <path d="M2887.87,1970.17c5.27.8,12.27,1.6,16.93,2.11-6.12-1.51-16-5.28-21.54-7.51.24,1.51.47,3,.7,4.55C2885.05,1969.55,2886.36,1969.83,2887.87,1970.17Z"/>
    <path d="M2917.67,1986.32c-.69-3.71-19.2-9.73-33.22-13.77.16,1.06.31,2.13.47,3.2C2898.94,1979,2917.67,1986.32,2917.67,1986.32Z"/>
    <path d="M2818,2286c-8.78-3.09-24.52-11.59-34-16.89-1.16,1.84-2.31,3.72-3.44,5.61C2792,2279.67,2809.41,2284,2818,2286Z"/>
    <path d="M2806.68,2266.32c-5.4-3.3-10.77-7.16-14.23-9.74-.81,1.13-1.62,2.28-2.42,3.45C2795.13,2261.72,2801.22,2264.09,2806.68,2266.32Z"/>
    <path d="M2806.68,2266.32c5.74,3.5,11.5,6.37,15,6.37C2821.68,2272.69,2814.87,2269.66,2806.68,2266.32Z"/>
    <path d="M2815.67,2244.65a78.74,78.74,0,0,1-8.6-6.74l-1.67,2C2810.85,2242.64,2815.67,2244.65,2815.67,2244.65Z"/>
    <path d="M2818,2286a15.37,15.37,0,0,0,5.18,1.17S2821.19,2286.79,2818,2286Z"/>
    <path d="M2816.54,2256.63c-4.76-1.26-11.39-6.64-16-10.81q-1.82,2.26-3.6,4.64C2804.59,2253.35,2813.4,2255.79,2816.54,2256.63Z"/>
    <path d="M2834.19,2233.14c.23-2-3.37-7.61-7.37-13.07l-2.5,1.9C2829.44,2227.53,2834.19,2233.14,2834.19,2233.14Z"/>
    <path d="M2839.92,2255a22.28,22.28,0,0,0,5.29,4.2S2843.12,2257.57,2839.92,2255Z"/>
    <path d="M2856.22,2264.68l-18.87-52.85c-1.71,1.43-3.47,2.83-5.25,4.21Z"/>
    <path d="M2817.29,2256.82Z"/>
    <path d="M2839.92,2255c-6.62-6.61-15.05-18.82-21.33-28.52-1.79,1.46-3.47,2.9-5,4.33C2821.58,2239.68,2833.21,2249.53,2839.92,2255Z"/>
    <path d="M2817.29,2256.82l-.75-.19.13,0Z"/>
    <polygon points="2790.64 2374.32 2749.59 2358.88 2748.34 2362.82 2790.64 2374.32"/>
    <path d="M2747.08,2445.41c0-6.15-9.42-10.44-18.19-13.1-.29.76-.59,1.51-.89,2.27A133.92,133.92,0,0,1,2747.08,2445.41Z"/>
    <path d="M2743.89,2428.89c-2.68-3.16-7.21-4.73-11.85-5.46q-.59,1.76-1.2,3.51C2737.63,2427.65,2743.89,2428.89,2743.89,2428.89Z"/>
    <path d="M2749.49,2466.32c-7.62-5.83-17.74-15.37-25.21-22.68q-1.4,3.2-2.85,6.35C2729.83,2455.37,2740.51,2461.42,2749.49,2466.32Z"/>
    <path d="M2767.61,2476s-8-4.08-18.12-9.63a40.68,40.68,0,0,0,7.1,4.62Z"/>
    <path d="M2755.59,2418.38s-11-1.52-20.73-3.82c-.38,1.27-.74,2.55-1.14,3.82Z"/>
    <path d="M2765.6,2401.86c-4.62-5-17.06-8.16-25-9.78-.33,1.55-.66,3.1-1,4.64A216.91,216.91,0,0,1,2765.6,2401.86Z"/>
    <path d="M2765.1,2410.37c-1.1-5.81-14.58-8.56-26.42-9.86q-.6,2.46-1.23,4.89A260.28,260.28,0,0,1,2765.1,2410.37Z"/>
    <path d="M2741.57,2480l-4.5-11c-2.56-6.25-11.09-11.05-18-14-.52,1-1.05,2.08-1.58,3.12C2730.65,2463.87,2741.57,2480,2741.57,2480Z"/>
    <path d="M2733.38,2505.2c.92.79,1.67,1.4,2.19,1.79Z"/>
    <path d="M2730.56,2530c-8-4-22.86-24.08-33.23-39.09-2.07,2.84-4.22,5.62-6.41,8.34C2705.3,2517.11,2730.56,2530,2730.56,2530Z"/>
    <path d="M2733.38,2505.2c-5.75-4.91-18.58-16.81-28.15-25.75-.63,1-1.29,2-1.94,2.92C2714.68,2490.15,2728.2,2501,2733.38,2505.2Z"/>
    <path d="M2742.88,2380c14.24-.05,31.74-1.14,31.74-1.14-9.3,0-21.25-1.18-30.65-2.37l-1.06,3.35Z"/>
    <path d="M2747.58,2495.48l-33.71-30.58c-.55,1-1.1,2-1.66,3Z"/>
    <path d="M2743.89,2500.48l-34.57-27.61c-.82,1.36-1.66,2.7-2.5,4Z"/>
    <path class="cls-1" d="M2595.36,2592.45s-1.3-12.38-3.1-24.67l-2.58.83A228.24,228.24,0,0,1,2595.36,2592.45Z"/>
    <path d="M2631.12,2567.12l-2.54-15.06c-.76.42-1.52.84-2.28,1.24C2629.07,2560.58,2631.12,2567.12,2631.12,2567.12Z"/>
    <path d="M2677.89,2540.43l11.61,2.61s-15.08-6.9-23.64-17.4c-.91.81-1.82,1.62-2.74,2.41C2667.08,2533.56,2672.33,2539.18,2677.89,2540.43Z"/>
    <path d="M2713,2530.77c-4.95-4.35-17.62-15.64-27.14-25.48-.74.85-1.48,1.71-2.23,2.55C2694,2515.72,2707.37,2526,2713,2530.77Z"/>
    <path d="M2713,2530.77l2.12,1.85C2714.69,2532.18,2714,2531.54,2713,2530.77Z"/>
    <path d="M2672.18,2519.8l33.78,26.28-31.33-28.7C2673.82,2518.19,2673,2519,2672.18,2519.8Z"/>
    <path class="cls-1" d="M2605.3,2563c3,6.67,7,14,11.19,16.75,0,0-3.95-8.64-7.3-18.32l-1.43.62C2607,2562.37,2606.11,2562.67,2605.3,2563Z"/>
    <path class="cls-1" d="M2624.8,2577.83s-4.13-9.7-7.53-20c-1.51.71-3,1.42-4.58,2.1C2615.83,2569.24,2620,2577.73,2624.8,2577.83Z"/>
    <path d="M2639.54,2553.83s-1.09-2.87-2.36-6.8c-.85.52-1.69,1-2.55,1.55A14.47,14.47,0,0,0,2639.54,2553.83Z"/>
    <path d="M2683.12,2559.35a42,42,0,0,0-5.75-6.24c7.16,9.09,12.52,16.27,12.52,16.27Z"/>
    <path d="M2656.36,2554.22a145.63,145.63,0,0,1-10.79-12.64c-.84.58-1.7,1.13-2.55,1.7C2646.8,2549.68,2651.49,2555.05,2656.36,2554.22Z"/>
    <path d="M2716.52,2494.68a56.21,56.21,0,0,0-16.15-8c-.73,1-1.48,2.08-2.23,3.12C2704.94,2490.57,2711.78,2492,2716.52,2494.68Z"/>
    <path d="M2677.37,2553.11c-5.49-7-12-15.05-18-21.9q-2.28,1.88-4.62,3.68A286.29,286.29,0,0,1,2677.37,2553.11Z"/>
    <path d="M2710.13,2541.91l-28.6-31.71c-1,1.12-2.06,2.25-3.12,3.35Z"/>
    <path class="cls-1" d="M2593.51,2609l-16.84-36.46c-1.25.35-2.52.68-3.79,1Z"/>
    <path d="M2721.05,2498.48a14.07,14.07,0,0,0-4.53-3.8A34.34,34.34,0,0,1,2721.05,2498.48Z"/>
    <path d="M2963.26,1682.58c-47.57-62.36-88-129.85-130.25-198.81-13.73-22.42-37.56-57.29-30.36-97.94,6.1-34.46,11.46-70.88,27.42-96.95,4.63-7.57,35.69-38.56,36.24-42.12L2854.55,1234q.49-6.85,1-13.71-3.42-19.59-6.85-39.17c-9.12-30.79-23.94-55.84-35.26-82.27-21-49-20.64-111.65-38.19-164.53-16.34-49.21-46.17-91.62-71.5-133.19-19.46-31.95-31-67.51-48-103.81-19.85-42.52-44.13-82.17-69.54-119.48-146.44-215.06-396.52-332.81-761.94-328.09l-38.19,2-88.14,14.69c-80.71,22.94-153.51,49.53-223.3,81.29-4.84-6.65-4.12-14.81-10.77-19.59-41.59-29.89-57.16,39.05-111.64,34.28-21.15-1.85-42.47-19.22-64.64-15.67-11.8,1.89-17.79,11.7-26.44,13.71-13.12,3-20.2,1.12-30.36,7.83L1211.2,384l-33.3-1-65.62,8.82c-69.51,19.86-119.45,52.65-168.44,92.06-69.19,55.64-129.4,151.28-168.45,237L707.81,913.78c-69.82,187-125.82,386.72-180.2,588.6q-30.84,139.53-61.7,279.11c-19.79,71.71-23.73,148.37-38.19,223.29q-3.44,37.71-6.86,75.41c-30.59,176.67,49.38,301.06,142,371.18,51.92,39.31,101.62,78.87,176.28,35.26,13.85-8.09,30.13-14.6,40.15-26.45.66-.32,1.31-.65,2-1-20.54-.85-48.44,4.67-71.49,0-80.74-16.36-117.22-68.82-111.65-168.45l2-1c4.22,31.67,32.19,53.28,53.87,68.55,59.2,41.69,185.86,78.2,286.95,76.39l-49-9.79c-64.79-18-146.38-45.86-145.92-128.3h1c35.57,23.52,73.08,36.57,117.12,37.1,40.49,2.08,127.92-4.56,281.42-65.55,0,0-119,3.28-75.94-74.86h0l9.29-12a160.18,160.18,0,0,1,25.6-26.19c15.61-12.67,39.91-33.72,46-46.55l18,30.79c18,23.86,89.36,90.16,116.21,100.44l1,2c-12.52,14.2-26.73,21.08-32.32,43.09,0,.31-.31.49-.78.57-10.72,7.87-129.29,95.88-181.88,175.09,65.25,88.8,153.29,160.31,235.55,222,138.46,103.77,272.66,213.88,413.28,316.33,66.94,48.76,125.5,94.4,213.5,124.38,14.29,4.86,68.14,24.74,83.25,17.62,16.06-7.56,5.27-48.94,1-61.7-9.49-28.19-21.94-55.17-35.26-80.3l-17.63-26.45q2-19.1,3.92-38.19c28.45-101.34,113.2-166.79,191-219.38,56.51-38.2,103.27-76.82,176.29-99.89,72.32-22.85,162.74-21.43,237.38-41.36,1.27-.33,2.54-.66,3.79-1,4.4-1.22,8.73-2.55,13-3.94l2.58-.83q6.63-2.24,13-4.79c.81-.32,1.65-.62,2.46-.95l1.42-.62c1.18-.49,2.35-1,3.51-1.51,1.54-.67,3.07-1.38,4.58-2.09,3.05-1.44,6.07-2.93,9-4.52.76-.4,1.52-.82,2.28-1.24q3.06-1.68,6.05-3.48c.86-.51,1.7-1,2.55-1.55,2-1.22,3.91-2.47,5.84-3.75.85-.57,1.71-1.12,2.55-1.7,3.11-2.14,6.14-4.38,9.13-6.69q2.34-1.8,4.62-3.68c1.28-1,2.55-2.08,3.8-3.16.92-.79,1.83-1.6,2.74-2.41q3.21-2.85,6.32-5.84c.83-.79,1.64-1.61,2.45-2.42,1.27-1.26,2.54-2.53,3.78-3.83,1.06-1.1,2.09-2.23,3.12-3.35.72-.79,1.44-1.56,2.14-2.36s1.49-1.7,2.23-2.55c1.7-2,3.38-4,5-6,2.19-2.73,4.34-5.5,6.41-8.34l.81-1.12c.75-1,1.5-2.07,2.23-3.12q1.49-2.14,2.92-4.32c.65-1,1.31-1.93,1.94-2.92.54-.84,1.06-1.7,1.59-2.54.84-1.34,1.68-2.68,2.5-4q1.47-2.46,2.89-4.95c.56-1,1.11-2,1.66-3q1.88-3.39,3.64-6.87c.53-1,1.06-2.08,1.58-3.12q1.18-2.44,2.34-4.92,1.46-3.15,2.85-6.35c1.29-3,2.53-6,3.72-9.06.3-.76.6-1.51.89-2.27.67-1.78,1.31-3.57,2-5.37q.61-1.76,1.2-3.51c.57-1.68,1.14-3.36,1.68-5,.4-1.27.76-2.55,1.15-3.82.9-3,1.77-6.08,2.58-9.16q.63-2.43,1.23-4.89c.3-1.26.61-2.52.9-3.79.35-1.54.68-3.09,1-4.64.83-4,1.61-8,2.29-12l0-.16,1.06-3.35,4.37-13.71,1.25-3.94.17-.55c3.62-29.24,15.77-58.52,30.79-83.57,1.13-1.89,2.28-3.77,3.44-5.61q3-4.68,6-9.12c.8-1.17,1.61-2.32,2.42-3.45,1.49-2.09,3-4.13,4.49-6.12q1.79-2.37,3.6-4.64c1.61-2.05,3.24-4,4.86-6l1.67-2c1.47-1.69,2.93-3.35,4.39-4.94.67-.73,1.4-1.46,2.17-2.19,1.49-1.43,3.17-2.87,5-4.33s3.74-3,5.73-4.48l2.5-1.9c1.75-1.33,3.52-2.67,5.28-4s3.54-2.78,5.25-4.21c7-5.84,13-12.1,15.25-19,6-18.64-4.48-31.44-8.82-44.07q-2.94-21.06-5.87-42.11c45.32-.81,53.88-43.31,51.2-91.17-.07-1.33-.15-2.67-.25-4q-.32-4.62-.75-9.28c-.05-.57-.1-1.15-.16-1.72-.25-2.59-.53-5.19-.83-7.78-.14-1.26-.29-2.52-.44-3.77-.19-1.52-.38-3-.58-4.56s-.39-2.91-.58-4.36l-.6-4.24c-.16-1.07-.31-2.14-.47-3.2-.08-.55-.17-1.1-.25-1.65l-.21-1.39,0-.19c-.23-1.53-.46-3-.7-4.55q-.45-2.88-.92-5.73-.65-3.94-1.29-7.78c-.14-.82-.28-1.65-.41-2.46-.21-1.18-.41-2.36-.61-3.53-.43-2.57-.87-5.1-1.29-7.57-.17-1-.33-1.92-.49-2.87-1.09-6.38-2.11-12.41-2.95-18-.25-1.61-.48-3.18-.7-4.71-.16-1.14-.32-2.26-.46-3.35-2.23-17.08,11.45-24,15.67-35.26,6.55-3,17.17-.92,25.46-2.94,28-6.8,55.9-20.57,71.5-40.15C3031.28,1774.58,2995.76,1725.18,2963.26,1682.58ZM1485.42,621c-36.12,50.7-67.39,102.95-97.94,159.63-6.09,11.3-13.31,16.49-17.63,28.4l-1.95,1c-12.1-24.82-9.16-75.13-3.92-104.79,11.88-67.3,22.94-112.31,56.8-154.74,11.22-14.05,27.57-22.6,40.15-35.25h7.84l12.73,13.71,44.07,6.85,14.69,9.8C1536.85,561.11,1496.42,605.51,1485.42,621Z"/>
  </g>
  <text class="cls-2" transform="translate(3509.14 1019.7)"><tspan class="cls-3">T<tspan class="cls-4" x="305.57" y="0">he</tspan></tspan><tspan x="0" y="914.43">Clien</tspan><tspan class="cls-5" x="1713.76" y="914.43">t</tspan><tspan x="0" y="1828.86">R</tspan><tspan class="cls-6" x="422.15" y="1828.86">e</tspan><tspan class="cls-7" x="737.63" y="1828.86">c</tspan><tspan x="1123.21" y="1828.86">ord</tspan></text>
</svg>
