<?xml version="1.0" encoding="utf-8"?>
<!-- Generator: Adobe Illustrator 22.1.0, SVG Export Plug-In . SVG Version: 6.00 Build 0)  -->
<svg version="1.1" id="Capa_1" xmlns="http://www.w3.org/2000/svg" xmlns:xlink="http://www.w3.org/1999/xlink" x="0px" y="0px"
	 viewBox="0 0 477.9 477.9" style="enable-background:new 0 0 477.9 477.9;" xml:space="preserve">
<g>
	<g>
		<path d="M51.2,477.9h221.9c28.3,0,51.2-22.9,51.2-51.2V324.3c0-9.4-7.6-17.1-17.1-17.1s-17.1,7.6-17.1,17.1v102.4
			c0,9.4-7.6,17.1-17.1,17.1H51.2c-9.4,0-17.1-7.6-17.1-17.1V51.2c0-9.4,7.6-17.1,17.1-17.1h221.9c9.4,0,17.1,7.6,17.1,17.1v102.4
			c0,9.4,7.6,17.1,17.1,17.1s17.1-7.6,17.1-17.1V51.2c0-28.3-22.9-51.2-51.2-51.2H51.2C22.9,0,0,22.9,0,51.2v375.5
			C0,454.9,22.9,477.9,51.2,477.9z"/>
	</g>
</g>
<g>
	<g>
		<path d="M136.5,256h283.1l-56.2,56.2c-6.5,6.8-6.4,17.6,0.4,24.1c6.6,6.4,17.1,6.4,23.7,0l85.3-85.3c1.6-1.6,2.8-3.5,3.7-5.5
			c1.7-4.2,1.7-8.9,0-13c-0.9-2.1-2.1-4-3.7-5.6l-85.3-85.3c-6.5-6.8-17.4-7-24.1-0.4c-6.8,6.5-7,17.4-0.4,24.1
			c0.1,0.1,0.3,0.3,0.4,0.4l56.2,56.2H136.5c-9.4,0-17.1,7.6-17.1,17.1S127.1,256,136.5,256z"/>
	</g>
</g>
</svg>
