<svg id="Layer_1" data-name="Layer 1" xmlns="http://www.w3.org/2000/svg" viewBox="0 0 1280 1024">
  <defs>
    <style>
      .cls-1 {
        fill: #353839;
      }

      .cls-2 {
        fill: #fff;
      }
    </style>
  </defs>
  <title>user_icon</title>
  <g>
    <g>
      <polygon class="cls-1" points="136.05 100.01 101.7 94.25 103.28 322.4 281.02 358.35 135.13 294.03 136.05 100.01"/>
      <polygon class="cls-1" points="191.1 69.89 155.31 53.33 157.06 278.68 303.3 347.08 190.96 267.91 191.1 69.89"/>
      <polygon class="cls-1" points="520.46 53.33 484.66 69.89 484.81 267.91 372.47 347.08 518.71 278.68 520.46 53.33"/>
      <polygon class="cls-1" points="539.72 100.01 540.63 294.03 394.75 358.35 572.49 322.4 574.07 94.25 539.72 100.01"/>
    </g>
    <g>
      <path class="cls-1" d="M295.59,233.3q-16.68,0-29.52-6.56a48.81,48.81,0,0,1-20.2-19q-7.34-12.42-7.34-29.09a57,57,0,0,1,7.13-28.46,51.45,51.45,0,0,1,20.41-20q13.28-7.35,30.65-7.35a72.07,72.07,0,0,1,17.86,2.33,57.42,57.42,0,0,1,15.61,6.29l-3.53,18.22q-15.41-7.63-29.66-7.63a38.9,38.9,0,0,0-18.64,4.38A31.75,31.75,0,0,0,265.5,159a38.25,38.25,0,0,0-4.66,19.21q0,16.52,9.89,26.19t26.69,9.68A63.9,63.9,0,0,0,313.1,212a72.75,72.75,0,0,0,15.67-5.93L331,224.69a63.71,63.71,0,0,1-16.52,6.36A80.32,80.32,0,0,1,295.59,233.3Z"/>
      <path class="cls-1" d="M351.93,124.42h34.89q18.49,0,29.09,9.11T426.5,158.6a31.71,31.71,0,0,1-4.66,17,34.39,34.39,0,0,1-13.27,12.22l28.67,43.92H413l-23-38.55-4,.21c-1.08.05-2.1.07-3,.07H372.55v38.27H351.93Zm20.62,51.69h10.6q22.17,0,22.17-17.37,0-8.34-5.44-12.64t-16-4.31h-11.3Z"/>
    </g>
  </g>
  <rect class="cls-1" x="717.74" y="44.25" width="543.39" height="457.03"/>
  <g>
    <g>
      <polygon class="cls-2" points="790.78 151.39 756.43 145.63 758.01 373.78 935.75 409.73 789.87 345.41 790.78 151.39"/>
      <polygon class="cls-2" points="845.84 121.27 810.04 104.71 811.79 330.06 958.03 398.46 845.69 319.29 845.84 121.27"/>
      <polygon class="cls-2" points="1175.19 104.71 1139.4 121.27 1139.54 319.29 1027.2 398.46 1173.44 330.06 1175.19 104.71"/>
      <polygon class="cls-2" points="1194.45 151.39 1195.37 345.41 1049.48 409.73 1227.22 373.78 1228.8 145.63 1194.45 151.39"/>
    </g>
    <g>
      <path class="cls-2" d="M950.32,284.68q-16.67,0-29.52-6.56a48.72,48.72,0,0,1-20.19-19q-7.35-12.42-7.35-29.09a57,57,0,0,1,7.13-28.46,51.51,51.51,0,0,1,20.41-20q13.28-7.35,30.65-7.35a72.07,72.07,0,0,1,17.86,2.33,57.16,57.16,0,0,1,15.61,6.29l-3.53,18.22q-15.39-7.64-29.66-7.63a38.9,38.9,0,0,0-18.64,4.38,31.73,31.73,0,0,0-12.85,12.57,38.14,38.14,0,0,0-4.66,19.21q0,16.51,9.88,26.19t26.69,9.68a63.84,63.84,0,0,0,15.68-2.12,72.83,72.83,0,0,0,15.68-5.93l2.26,18.64a63.29,63.29,0,0,1-16.53,6.35A79.81,79.81,0,0,1,950.32,284.68Z"/>
      <path class="cls-2" d="M1006.67,175.8h34.88q18.5,0,29.09,9.11t10.6,25.06a31.8,31.8,0,0,1-4.66,17,34.49,34.49,0,0,1-13.28,12.22L1092,283.13h-24.29l-23-38.55-4,.21c-1.08.05-2.09.07-3,.07h-10.31v38.27h-20.62Zm20.62,51.69h10.59q22.17,0,22.17-17.37,0-8.34-5.44-12.64t-16-4.31h-11.3Z"/>
    </g>
  </g>
</svg>
